<?xml version="1.0" encoding="UTF-8" standalone="no"?>
<!-- Created with Inkscape (http://www.inkscape.org/) -->

<svg
   xmlns:dc="http://purl.org/dc/elements/1.1/"
   xmlns:cc="http://creativecommons.org/ns#"
   xmlns:rdf="http://www.w3.org/1999/02/22-rdf-syntax-ns#"
   xmlns:svg="http://www.w3.org/2000/svg"
   xmlns="http://www.w3.org/2000/svg"
   xmlns:sodipodi="http://sodipodi.sourceforge.net/DTD/sodipodi-0.dtd"
   xmlns:inkscape="http://www.inkscape.org/namespaces/inkscape"
   version="1.1"
   id="svg3713"
   xml:space="preserve"
   width="825.79333"
   height="825.79333"
   viewBox="0 0 825.79333 825.79333"
   sodipodi:docname="kofi.svg"
   inkscape:version="0.92.5 (2060ec1f9f, 2020-04-08)"><metadata
     id="metadata3719"><rdf:RDF><cc:Work
         rdf:about=""><dc:format>image/svg+xml</dc:format><dc:type
           rdf:resource="http://purl.org/dc/dcmitype/StillImage" /><dc:title></dc:title></cc:Work></rdf:RDF></metadata><defs
     id="defs3717"><clipPath
       clipPathUnits="userSpaceOnUse"
       id="clipPath3729"><path
         d="M 0,426.35 H 619.345 V 0 H 0 Z"
         id="path3727"
         inkscape:connector-curvature="0" /></clipPath></defs><sodipodi:namedview
     pagecolor="#ffffff"
     bordercolor="#666666"
     borderopacity="1"
     objecttolerance="10"
     gridtolerance="10"
     guidetolerance="10"
     inkscape:pageopacity="0"
     inkscape:pageshadow="2"
     inkscape:window-width="1920"
     inkscape:window-height="1017"
     id="namedview3715"
     showgrid="false"
     inkscape:zoom="0.74410694"
     inkscape:cx="-90.615857"
     inkscape:cy="387.85038"
     inkscape:window-x="-8"
     inkscape:window-y="-8"
     inkscape:window-maximized="1"
     inkscape:current-layer="g3721" /><g
     id="g3721"
     inkscape:groupmode="layer"
     inkscape:label="white-border-logo"
     transform="matrix(1.3333333,0,0,-1.3333333,0,825.79333)"><g
       id="g3731"
       transform="translate(479.56505,258.8819)" /><g
       id="g4002"
       transform="translate(0.00644714,96.207205)"><path
         d="m 577.31595,282.7094 c -7.914,39.752 -28.378,64.682 -51.033,79.422 -22.654,15.918 -49.94,23.836 -77.143,23.838 l -390.44101,0.021 c -13.644,0 -19.287,-13.643 -19.288,-20.465 0,-1.094 0,-4.547 0,-4.547 0,0 -1.104,-172.482 1.081,-265.544 3.366,-54.49 57.856,-54.493 57.856,-54.493 0,0 178.12401,-0.01 264.36401,1.081 4.548,-10e-4 7.917,-10e-4 12.465,1.094 48.763,12.462 53.314,57.856 53.315,82.869 97.694,-4.385 166.926,64.84 148.824,156.724 m -110.079,-89.604 c -20.466,-2.272 -37.478,-1.092 -37.478,-1.092 l 0.007,128.182 26.108,-0.002 c 17.012,-10e-4 32.929,-6.823 44.214,-20.468 7.916,-9.096 13.642,-21.56 13.641,-39.752 -0.002,-41.941 -21.563,-58.952 -46.492,-66.868"
         style="fill:#ffffff;fill-opacity:1;fill-rule:nonzero;stroke:none"
         id="path3737"
         inkscape:connector-curvature="0" /><path
         d="m 54.85064,96.0593 c -2.118,90.656 -1.114,257.813 -1.07,264.919 v 4.459 c 0.062,0.406 1.08,6.183 4.917,6.183 l 390.44101,-0.021 c 24.943,-0.001 49.405,-7.539 68.881,-21.224 0.143,-0.101 0.286,-0.198 0.427,-0.289 23.479,-15.276 38.543,-38.885 44.773,-70.164 7.269,-36.901 -0.931,-71.403 -23.088,-97.151 -24.964,-29.011 -65.413,-44.483 -110.993,-42.431 -3.899,0.177 -7.753,-1.269 -10.577,-3.969 -2.821,-2.697 -4.439,-6.483 -4.439,-10.386 -0.002,-39.053 -13.881,-61.6 -42.37,-68.913 -2.83,-0.675 -4.872,-0.677 -8.939,-0.681 l -0.283,-10e-4 c -75.023,-0.949 -219.962,-1.066 -262.59801,-1.079 h -1.55 c -0.106,10e-4 -10.775,0.203 -21.429,5.372 -13.556,6.575 -20.992,18.477 -22.103,35.376 m 536.58401,189.327 -0.003,0.017 c -0.006,0.028 -0.011,0.056 -0.016,0.084 l -0.021,0.099 c -9.699,48.607 -36.367,74.923 -57.057,88.447 -24.236,16.961 -54.49,26.303 -85.198,26.305 l -390.44101,0.021 c -21.959,0 -33.656,-20.23 -33.657,-34.834 v -4.456 c -0.011,-1.726 -1.082,-173.692 1.084,-265.969 0.005,-0.184 0.013,-0.368 0.024,-0.552 2.166,-35.072 22.002,-51.836 38.261,-59.723 16.798,-8.149 33.242,-8.253 33.937,-8.254 h 0.067 c 7.30201,0 179.80801,0.013 264.37001,1.081 4.911,0 9.551,0 15.732,1.488 l 0.218,0.053 c 25.725,6.575 44.056,21.628 54.483,44.741 4.926,10.918 7.904,23.231 9.076,37.553 23.603,0.597 45.797,5.262 66.02,13.879 21.306,9.079 39.341,22.086 53.603,38.66 28.014,32.554 38.495,75.65 29.518,121.36"
         style="fill:#ffffff;fill-opacity:1;fill-rule:nonzero;stroke:none"
         id="path3741"
         inkscape:connector-curvature="0" /><path
         d="m 444.12905,206.1016 0.005,99.723 11.739,-10e-4 c 13.236,0 25.006,-5.418 33.151,-15.266 l 0.225,-0.265 c 6.804,-7.818 10.111,-17.736 10.111,-30.318 -0.002,-28.691 -10.519,-44.486 -35.149,-52.741 -6.418,-0.665 -13.155,-1.044 -20.082,-1.132 m -15.365,-28.423 c 0.507,-0.035 5.164,-0.344 12.447,-0.344 9.42,0 18.71,0.501 27.609,1.49 0.937,0.103 1.867,0.3 2.765,0.586 37.496,11.905 56.511,39.01 56.513,80.562 0.001,19.489 -5.744,36 -17.026,49.018 -13.69,16.489 -33.293,25.571 -55.198,25.573 l -26.108,10e-4 c -7.923,0 -14.37,-6.446 -14.37,-14.369 l -0.007,-128.182 c 0,-7.518 5.875,-13.815 13.375,-14.335"
         style="fill:#ffffff;fill-opacity:1;fill-rule:nonzero;stroke:#ffffff"
         id="path3745"
         inkscape:connector-curvature="0" /><g
         transform="translate(231.16535,113.6997)"
         id="g3747"><path
           inkscape:connector-curvature="0"
           id="path3749"
           style="fill:#ff5e5b;fill-opacity:1;fill-rule:nonzero;stroke:none"
           d="m 0,0 c 4.548,-2.274 6.822,0 6.822,0 0,0 62.409,56.76 90.793,89.604 24.931,29.476 26.112,78.323 -15.912,96.432 C 38.583,204.23 3.378,164.48 3.378,164.48 c -30.654,34.027 -77.144,31.755 -98.705,9.101 -21.561,-22.654 -13.647,-61.311 2.269,-83.967 14.738,-20.466 80.594,-79.423 90.784,-88.519 0,1.179 1.179,0 2.274,-1.095" /></g><g
         style="fill:#ffffff;stroke:#ffffff"
         transform="translate(233.27075,112.0152)"
         id="g3751"><path
           inkscape:connector-curvature="0"
           id="path3753"
           style="fill:#ffffff;fill-opacity:1;fill-rule:nonzero;stroke:#ffffff"
           d="m 0,0 c 2.527,-0.505 4.716,1.684 4.716,1.684 0,0 62.41,56.761 90.794,89.605 24.93,29.475 26.112,78.322 -15.913,96.432 -43.119,18.193 -78.325,-21.556 -78.325,-21.556 -30.654,34.026 -77.143,31.755 -98.704,9.101 -21.562,-22.654 -13.647,-61.311 2.269,-83.967 C -81.268,72.012 -11.622,9.349 -2.948,1.516 -2.105,0.758 -1.095,0.169 0,0" /></g></g></g></svg>